<svg width="16" height="14" viewBox="0 0 16 14" fill="none" xmlns="http://www.w3.org/2000/svg">
<path d="M5.03344 13.5C11.0697 13.5 14.3722 8.4978 14.3722 4.16124C14.3722 4.02062 14.3691 3.87687 14.3628 3.73624C15.0052 3.27164 15.5597 2.69617 16 2.03687C15.4017 2.30307 14.7664 2.47692 14.1159 2.55249C14.8009 2.14194 15.3137 1.49698 15.5594 0.737178C14.915 1.11904 14.2104 1.38841 13.4756 1.53374C12.9806 1.00771 12.326 0.659411 11.6131 0.542701C10.9003 0.42599 10.1688 0.547367 9.53183 0.888064C8.89486 1.22876 8.38787 1.7698 8.08923 2.42754C7.7906 3.08528 7.71695 3.82308 7.87969 4.52687C6.575 4.46139 5.29862 4.12247 4.13332 3.53207C2.96802 2.94166 1.9398 2.11296 1.11531 1.09968C0.696266 1.82216 0.568038 2.6771 0.756687 3.49073C0.945337 4.30436 1.43671 5.01563 2.13094 5.47999C1.60975 5.46344 1.09998 5.32312 0.64375 5.07061V5.11124C0.643283 5.86943 0.905399 6.60439 1.38554 7.19118C1.86568 7.77797 2.53422 8.18037 3.2775 8.32999C2.7947 8.46209 2.28799 8.48133 1.79656 8.38624C2.0063 9.03829 2.41438 9.60859 2.96385 10.0176C3.51331 10.4265 4.17675 10.6537 4.86156 10.6675C3.69895 11.5807 2.26278 12.0761 0.784375 12.0737C0.522191 12.0733 0.260266 12.0573 0 12.0256C1.5019 12.9892 3.24902 13.5009 5.03344 13.5Z" fill="#3E8BF3"/>
</svg>
