<svg width="163" height="264" viewBox="0 0 163 264" fill="none" xmlns="http://www.w3.org/2000/svg">
<path d="M162.198 245.82C162.771 246.123 162.804 246.938 162.258 247.286L150.908 254.53C150.362 254.879 149.646 254.5 149.619 253.848L149.067 240.308C149.041 239.656 149.724 239.221 150.296 239.524L162.198 245.82Z" fill="#3E8BF3"/>
<path d="M-83.2913 29.2975C-83.5537 22.8604 -83.5488 16.4744 -83.2866 10.1502L-78.0208 9.93555C-78.2952 16.2585 -78.3064 22.6449 -78.044 29.0836C-73.036 151.951 29.7315 247.744 152.244 244.557L152.458 249.805C27.0472 253.109 -78.1652 155.063 -83.2913 29.2975Z" fill="url(#paint0_linear_77_5001)"/>
<defs>
<linearGradient id="paint0_linear_77_5001" x1="157.07" y1="261.655" x2="-130.928" y2="122.469" gradientUnits="userSpaceOnUse">
<stop stop-color="#3E8BF3"/>
<stop offset="1" stop-color="#3E8BF3" stop-opacity="0"/>
</linearGradient>
</defs>
</svg>
