<svg width="21" height="20" viewBox="0 0 21 20" fill="none" xmlns="http://www.w3.org/2000/svg">
<path d="M13.625 1.875H7.375V5H13.625V1.875Z" stroke="#6F767E" stroke-width="1.25" stroke-linecap="round" stroke-linejoin="round"/>
<path d="M13.625 3.125H16.125C16.2908 3.125 16.4497 3.19085 16.5669 3.30806C16.6842 3.42527 16.75 3.58424 16.75 3.75V16.875C16.75 17.0408 16.6842 17.1997 16.5669 17.3169C16.4497 17.4342 16.2908 17.5 16.125 17.5H4.875C4.70924 17.5 4.55027 17.4342 4.43306 17.3169C4.31585 17.1997 4.25 17.0408 4.25 16.875V3.75C4.25 3.58424 4.31585 3.42527 4.43306 3.30806C4.55027 3.19085 4.70924 3.125 4.875 3.125H7.375" stroke="#6F767E" stroke-width="1.25" stroke-linecap="round" stroke-linejoin="round"/>
<path d="M8 11.875H13" stroke="#6F767E" stroke-width="1.25" stroke-linecap="round" stroke-linejoin="round"/>
<path d="M8 9.375H13" stroke="#6F767E" stroke-width="1.25" stroke-linecap="round" stroke-linejoin="round"/>
</svg>
