<svg width="72" height="72" viewBox="0 0 72 72" fill="none" xmlns="http://www.w3.org/2000/svg">
<g filter="url(#filter0_dd_77_5710)">
<circle cx="36" cy="28" r="20" fill="white"/>
</g>
<g clip-path="url(#clip0_77_5710)">
<path d="M44 28C44 23.5817 40.4183 20 36 20C31.5817 20 28 23.5817 28 28C28 31.993 30.9255 35.3027 34.75 35.9028V30.3125H32.7188V28H34.75V26.2375C34.75 24.2325 35.9444 23.125 37.7717 23.125C38.6467 23.125 39.5625 23.2812 39.5625 23.2812V25.25H38.5538C37.56 25.25 37.25 25.8667 37.25 26.5V28H39.4688L39.1141 30.3125H37.25V35.9028C41.0745 35.3027 44 31.993 44 28Z" fill="#3E8BF3"/>
</g>
<defs>
<filter id="filter0_dd_77_5710" x="0" y="0" width="72" height="72" filterUnits="userSpaceOnUse" color-interpolation-filters="sRGB">
<feFlood flood-opacity="0" result="BackgroundImageFix"/>
<feColorMatrix in="SourceAlpha" type="matrix" values="0 0 0 0 0 0 0 0 0 0 0 0 0 0 0 0 0 0 127 0" result="hardAlpha"/>
<feOffset dy="8"/>
<feGaussianBlur stdDeviation="8"/>
<feColorMatrix type="matrix" values="0 0 0 0 0 0 0 0 0 0 0 0 0 0 0 0 0 0 0.08 0"/>
<feBlend mode="normal" in2="BackgroundImageFix" result="effect1_dropShadow_77_5710"/>
<feColorMatrix in="SourceAlpha" type="matrix" values="0 0 0 0 0 0 0 0 0 0 0 0 0 0 0 0 0 0 127 0" result="hardAlpha"/>
<feOffset/>
<feGaussianBlur stdDeviation="2"/>
<feColorMatrix type="matrix" values="0 0 0 0 0 0 0 0 0 0 0 0 0 0 0 0 0 0 0.04 0"/>
<feBlend mode="normal" in2="effect1_dropShadow_77_5710" result="effect2_dropShadow_77_5710"/>
<feBlend mode="normal" in="SourceGraphic" in2="effect2_dropShadow_77_5710" result="shape"/>
</filter>
<clipPath id="clip0_77_5710">
<rect width="16" height="16" fill="white" transform="translate(28 20)"/>
</clipPath>
</defs>
</svg>
