<svg width="288" height="176" viewBox="0 0 288 176" fill="none" xmlns="http://www.w3.org/2000/svg">
<rect width="288" height="176" rx="5.87755" fill="#F5F9FE"/>
<path d="M107.896 52.6965C107.743 53.0906 108.071 53.481 108.487 53.3993L117.116 51.7016C117.531 51.6199 117.722 51.1273 117.46 50.8149L112.004 44.3247C111.741 44.0123 111.222 44.1145 111.069 44.5086L107.896 52.6965Z" fill="#6FD6BD"/>
<path d="M111.186 47.9649L109.997 48.9011L112.67 52.0808L113.789 51.2014C133.982 35.3316 162.776 37.17 180.79 55.0253L181.742 55.969L184.938 53.2926L183.801 52.1608C164.302 32.7531 133.071 30.7406 111.186 47.9649Z" fill="url(#paint0_linear_77_5134)"/>
<path fill-rule="evenodd" clip-rule="evenodd" d="M178.574 124.225C178.99 124.143 179.318 124.533 179.165 124.927L175.992 133.115C175.839 133.509 175.32 133.612 175.057 133.299L173.49 131.435C151.769 146.717 122.061 144.176 103.26 125.463L102.123 124.331L105.318 121.655L106.27 122.599C123.564 139.739 150.791 142.119 170.807 128.243L169.601 126.809C169.339 126.497 169.529 126.004 169.945 125.922L178.574 124.225Z" fill="url(#paint1_linear_77_5134)"/>
<g filter="url(#filter0_dd_77_5134)">
<rect x="111.673" y="55.7333" width="64.6531" height="64.5333" rx="32.2667" fill="white"/>
</g>
<path d="M144 99C150.086 99 155.02 94.0751 155.02 88C155.02 81.9249 150.086 77 144 77C137.914 77 132.98 81.9249 132.98 88C132.98 94.0751 137.914 99 144 99Z" stroke="#6FD6BD" stroke-width="2.44898" stroke-miterlimit="10" stroke-linecap="round" stroke-linejoin="round"/>
<path d="M148.539 86.4222C149.017 85.9445 149.018 85.1692 148.54 84.6905C148.062 84.2119 147.287 84.2112 146.808 84.6889L148.539 86.4222ZM142.776 90.4444L141.91 91.3111C142.388 91.7882 143.163 91.7882 143.641 91.3111L142.776 90.4444ZM141.192 87.1334C140.713 86.6556 139.938 86.6563 139.46 87.135C138.982 87.6136 138.983 88.3889 139.461 88.8667L141.192 87.1334ZM146.808 84.6889L141.91 89.5778L143.641 91.3111L148.539 86.4222L146.808 84.6889ZM143.641 89.5778L141.192 87.1334L139.461 88.8667L141.91 91.3111L143.641 89.5778Z" fill="#6FD6BD"/>
<defs>
<filter id="filter0_dd_77_5134" x="99.9184" y="49.8558" width="88.1633" height="88.0435" filterUnits="userSpaceOnUse" color-interpolation-filters="sRGB">
<feFlood flood-opacity="0" result="BackgroundImageFix"/>
<feColorMatrix in="SourceAlpha" type="matrix" values="0 0 0 0 0 0 0 0 0 0 0 0 0 0 0 0 0 0 127 0" result="hardAlpha"/>
<feOffset dy="5.87755"/>
<feGaussianBlur stdDeviation="5.87755"/>
<feColorMatrix type="matrix" values="0 0 0 0 0 0 0 0 0 0 0 0 0 0 0 0 0 0 0.08 0"/>
<feBlend mode="normal" in2="BackgroundImageFix" result="effect1_dropShadow_77_5134"/>
<feColorMatrix in="SourceAlpha" type="matrix" values="0 0 0 0 0 0 0 0 0 0 0 0 0 0 0 0 0 0 127 0" result="hardAlpha"/>
<feOffset/>
<feGaussianBlur stdDeviation="1.46939"/>
<feColorMatrix type="matrix" values="0 0 0 0 0 0 0 0 0 0 0 0 0 0 0 0 0 0 0.04 0"/>
<feBlend mode="normal" in2="effect1_dropShadow_77_5134" result="effect2_dropShadow_77_5134"/>
<feBlend mode="normal" in="SourceGraphic" in2="effect2_dropShadow_77_5134" result="shape"/>
</filter>
<linearGradient id="paint0_linear_77_5134" x1="112.029" y1="47.1639" x2="175.429" y2="59.0386" gradientUnits="userSpaceOnUse">
<stop stop-color="#6FD6BD"/>
<stop offset="1" stop-color="#6FD6BD" stop-opacity="0"/>
</linearGradient>
<linearGradient id="paint1_linear_77_5134" x1="181.102" y1="123.933" x2="109.385" y2="117.03" gradientUnits="userSpaceOnUse">
<stop stop-color="#3E8BF3"/>
<stop offset="1" stop-color="#3E8BF3" stop-opacity="0"/>
</linearGradient>
</defs>
</svg>
