<svg width="72" height="72" viewBox="0 0 72 72" fill="none" xmlns="http://www.w3.org/2000/svg">
<g filter="url(#filter0_dd_77_5716)">
<circle cx="36" cy="28" r="20" fill="white"/>
</g>
<g clip-path="url(#clip0_77_5716)">
<path d="M36 21.4406C38.1375 21.4406 38.3906 21.45 39.2313 21.4875C40.0125 21.5219 40.4344 21.6531 40.7156 21.7625C41.0875 21.9063 41.3563 22.0813 41.6344 22.3594C41.9156 22.6406 42.0875 22.9063 42.2313 23.2781C42.3406 23.5594 42.4719 23.9844 42.5063 24.7625C42.5438 25.6062 42.5531 25.8594 42.5531 27.9938C42.5531 30.1313 42.5438 30.3844 42.5063 31.225C42.4719 32.0063 42.3406 32.4281 42.2313 32.7094C42.0875 33.0813 41.9125 33.35 41.6344 33.6281C41.3531 33.9094 41.0875 34.0813 40.7156 34.225C40.4344 34.3344 40.0094 34.4656 39.2313 34.5C38.3875 34.5375 38.1344 34.5469 36 34.5469C33.8625 34.5469 33.6094 34.5375 32.7688 34.5C31.9875 34.4656 31.5656 34.3344 31.2844 34.225C30.9125 34.0813 30.6438 33.9063 30.3656 33.6281C30.0844 33.3469 29.9125 33.0813 29.7688 32.7094C29.6594 32.4281 29.5281 32.0031 29.4938 31.225C29.4563 30.3813 29.4469 30.1281 29.4469 27.9938C29.4469 25.8563 29.4563 25.6031 29.4938 24.7625C29.5281 23.9812 29.6594 23.5594 29.7688 23.2781C29.9125 22.9063 30.0875 22.6375 30.3656 22.3594C30.6469 22.0781 30.9125 21.9063 31.2844 21.7625C31.5656 21.6531 31.9906 21.5219 32.7688 21.4875C33.6094 21.45 33.8625 21.4406 36 21.4406ZM36 20C33.8281 20 33.5563 20.0094 32.7031 20.0469C31.8531 20.0844 31.2688 20.2219 30.7625 20.4187C30.2344 20.625 29.7875 20.8969 29.3438 21.3438C28.8969 21.7875 28.625 22.2344 28.4188 22.7594C28.2219 23.2688 28.0844 23.85 28.0469 24.7C28.0094 25.5563 28 25.8281 28 28C28 30.1719 28.0094 30.4438 28.0469 31.2969C28.0844 32.1469 28.2219 32.7313 28.4188 33.2375C28.625 33.7656 28.8969 34.2125 29.3438 34.6562C29.7875 35.1 30.2344 35.375 30.7594 35.5781C31.2688 35.775 31.85 35.9125 32.7 35.95C33.5531 35.9875 33.825 35.9969 35.9969 35.9969C38.1688 35.9969 38.4406 35.9875 39.2938 35.95C40.1438 35.9125 40.7281 35.775 41.2344 35.5781C41.7594 35.375 42.2063 35.1 42.65 34.6562C43.0938 34.2125 43.3688 33.7656 43.5719 33.2406C43.7688 32.7313 43.9063 32.15 43.9438 31.3C43.9813 30.4469 43.9906 30.175 43.9906 28.0031C43.9906 25.8313 43.9813 25.5594 43.9438 24.7063C43.9063 23.8563 43.7688 23.2719 43.5719 22.7656C43.375 22.2344 43.1031 21.7875 42.6563 21.3438C42.2125 20.9 41.7656 20.625 41.2406 20.4219C40.7313 20.225 40.15 20.0875 39.3 20.05C38.4438 20.0094 38.1719 20 36 20Z" fill="#3E8BF3"/>
<path d="M36 23.8906C33.7313 23.8906 31.8906 25.7313 31.8906 28C31.8906 30.2688 33.7313 32.1094 36 32.1094C38.2688 32.1094 40.1094 30.2688 40.1094 28C40.1094 25.7313 38.2688 23.8906 36 23.8906ZM36 30.6656C34.5281 30.6656 33.3344 29.4719 33.3344 28C33.3344 26.5281 34.5281 25.3344 36 25.3344C37.4719 25.3344 38.6656 26.5281 38.6656 28C38.6656 29.4719 37.4719 30.6656 36 30.6656Z" fill="#3E8BF3"/>
<path d="M41.2312 23.7282C41.2312 24.2594 40.8 24.6876 40.2719 24.6876C39.7406 24.6876 39.3125 24.2563 39.3125 23.7282C39.3125 23.1969 39.7438 22.7688 40.2719 22.7688C40.8 22.7688 41.2312 23.2 41.2312 23.7282Z" fill="#3E8BF3"/>
</g>
<defs>
<filter id="filter0_dd_77_5716" x="0" y="0" width="72" height="72" filterUnits="userSpaceOnUse" color-interpolation-filters="sRGB">
<feFlood flood-opacity="0" result="BackgroundImageFix"/>
<feColorMatrix in="SourceAlpha" type="matrix" values="0 0 0 0 0 0 0 0 0 0 0 0 0 0 0 0 0 0 127 0" result="hardAlpha"/>
<feOffset dy="8"/>
<feGaussianBlur stdDeviation="8"/>
<feColorMatrix type="matrix" values="0 0 0 0 0 0 0 0 0 0 0 0 0 0 0 0 0 0 0.08 0"/>
<feBlend mode="normal" in2="BackgroundImageFix" result="effect1_dropShadow_77_5716"/>
<feColorMatrix in="SourceAlpha" type="matrix" values="0 0 0 0 0 0 0 0 0 0 0 0 0 0 0 0 0 0 127 0" result="hardAlpha"/>
<feOffset/>
<feGaussianBlur stdDeviation="2"/>
<feColorMatrix type="matrix" values="0 0 0 0 0 0 0 0 0 0 0 0 0 0 0 0 0 0 0.04 0"/>
<feBlend mode="normal" in2="effect1_dropShadow_77_5716" result="effect2_dropShadow_77_5716"/>
<feBlend mode="normal" in="SourceGraphic" in2="effect2_dropShadow_77_5716" result="shape"/>
</filter>
<clipPath id="clip0_77_5716">
<rect width="16" height="16" fill="white" transform="translate(28 20)"/>
</clipPath>
</defs>
</svg>
