<svg width="72" height="72" viewBox="0 0 72 72" fill="none" xmlns="http://www.w3.org/2000/svg">
<g filter="url(#filter0_dd_77_5713)">
<circle cx="36" cy="28" r="20" fill="white"/>
</g>
<g clip-path="url(#clip0_77_5713)">
<path d="M33.0334 34.5C39.0697 34.5 42.3722 29.4978 42.3722 25.1612C42.3722 25.0206 42.3691 24.8769 42.3628 24.7362C43.0052 24.2716 43.5597 23.6962 44 23.0369C43.4017 23.3031 42.7664 23.4769 42.1159 23.5525C42.8009 23.1419 43.3137 22.497 43.5594 21.7372C42.915 22.119 42.2104 22.3884 41.4756 22.5337C40.9806 22.0077 40.326 21.6594 39.6131 21.5427C38.9003 21.426 38.1688 21.5474 37.5318 21.8881C36.8949 22.2288 36.3879 22.7698 36.0892 23.4275C35.7906 24.0853 35.717 24.8231 35.8797 25.5269C34.575 25.4614 33.2986 25.1225 32.1333 24.5321C30.968 23.9417 29.9398 23.113 29.1153 22.0997C28.6963 22.8222 28.568 23.6771 28.7567 24.4907C28.9453 25.3044 29.4367 26.0156 30.1309 26.48C29.6098 26.4634 29.1 26.3231 28.6438 26.0706V26.1112C28.6433 26.8694 28.9054 27.6044 29.3855 28.1912C29.8657 28.778 30.5342 29.1804 31.2775 29.33C30.7947 29.4621 30.288 29.4813 29.7966 29.3862C30.0063 30.0383 30.4144 30.6086 30.9638 31.0176C31.5133 31.4265 32.1767 31.6537 32.8616 31.6675C31.6989 32.5807 30.2628 33.0761 28.7844 33.0737C28.5222 33.0733 28.2603 33.0573 28 33.0256C29.5019 33.9892 31.249 34.5009 33.0334 34.5Z" fill="#3E8BF3"/>
</g>
<defs>
<filter id="filter0_dd_77_5713" x="0" y="0" width="72" height="72" filterUnits="userSpaceOnUse" color-interpolation-filters="sRGB">
<feFlood flood-opacity="0" result="BackgroundImageFix"/>
<feColorMatrix in="SourceAlpha" type="matrix" values="0 0 0 0 0 0 0 0 0 0 0 0 0 0 0 0 0 0 127 0" result="hardAlpha"/>
<feOffset dy="8"/>
<feGaussianBlur stdDeviation="8"/>
<feColorMatrix type="matrix" values="0 0 0 0 0 0 0 0 0 0 0 0 0 0 0 0 0 0 0.08 0"/>
<feBlend mode="normal" in2="BackgroundImageFix" result="effect1_dropShadow_77_5713"/>
<feColorMatrix in="SourceAlpha" type="matrix" values="0 0 0 0 0 0 0 0 0 0 0 0 0 0 0 0 0 0 127 0" result="hardAlpha"/>
<feOffset/>
<feGaussianBlur stdDeviation="2"/>
<feColorMatrix type="matrix" values="0 0 0 0 0 0 0 0 0 0 0 0 0 0 0 0 0 0 0.04 0"/>
<feBlend mode="normal" in2="effect1_dropShadow_77_5713" result="effect2_dropShadow_77_5713"/>
<feBlend mode="normal" in="SourceGraphic" in2="effect2_dropShadow_77_5713" result="shape"/>
</filter>
<clipPath id="clip0_77_5713">
<rect width="16" height="16" fill="white" transform="translate(28 20)"/>
</clipPath>
</defs>
</svg>
