<svg width="15" height="15" viewBox="0 0 15 15" fill="none" xmlns="http://www.w3.org/2000/svg">
<path d="M14.1914 9.30004C13.2591 13.0391 9.47173 15.3146 5.73187 14.3822C1.99354 13.45 -0.282222 9.66275 0.650507 5.92395C1.58236 2.18448 5.36977 -0.0912541 9.10854 0.840939C12.8482 1.77313 15.1237 5.5608 14.1914 9.30004Z" fill="#F7931A"/>
<path fill-rule="evenodd" clip-rule="evenodd" d="M10.4974 6.61728C10.6363 5.68858 9.92923 5.18933 8.96236 4.85628L9.276 3.59823L8.51022 3.40739L8.20487 4.63228C8.00355 4.58212 7.79679 4.53479 7.59133 4.4879L7.89886 3.25493L7.13352 3.06409L6.81966 4.3217C6.65303 4.28375 6.48945 4.24623 6.33067 4.20675L6.33154 4.20283L5.27546 3.93914L5.07175 4.75704C5.07175 4.75704 5.63992 4.88725 5.62792 4.89532C5.93807 4.97275 5.99413 5.17799 5.98475 5.3407L5.62749 6.77389C5.64886 6.77934 5.67656 6.78719 5.7071 6.7994L5.68117 6.79293C5.6634 6.78847 5.64499 6.78386 5.62618 6.77934L5.1254 8.78702C5.08745 8.88124 4.99127 9.02258 4.77447 8.96892C4.7821 8.98005 4.21785 8.82999 4.21785 8.82999L3.83769 9.70656L4.83423 9.95499C4.94551 9.98288 5.05546 10.0115 5.16426 10.0399L5.16434 10.0399C5.23677 10.0588 5.30869 10.0776 5.38015 10.0959L5.06324 11.3683L5.82815 11.5592L6.142 10.3003C6.35095 10.357 6.55379 10.4093 6.75227 10.4586L6.4395 11.7116L7.20528 11.9025L7.52219 10.6324C8.828 10.8795 9.80992 10.7799 10.2232 9.59882C10.5563 8.64787 10.2067 8.09933 9.51962 7.74163C10.02 7.62625 10.3969 7.29713 10.4974 6.61728ZM8.74774 9.07083C8.53063 9.94328 7.165 9.58259 6.54016 9.41755L6.54008 9.41753C6.48389 9.40269 6.4337 9.38943 6.39087 9.3788L6.81138 7.69304C6.86355 7.70606 6.9273 7.72037 6.99952 7.73657C7.64579 7.88159 8.97021 8.17877 8.74774 9.07083ZM7.12937 6.95422C7.65032 7.09325 8.78667 7.39651 8.98461 6.60355C9.18674 5.79248 8.0823 5.54798 7.54291 5.42857C7.48224 5.41514 7.42871 5.40329 7.385 5.3924L7.00375 6.92134C7.03976 6.93031 7.08202 6.94159 7.12937 6.95422Z" fill="white"/>
</svg>
