<svg width="288" height="176" viewBox="0 0 288 176" fill="none" xmlns="http://www.w3.org/2000/svg">
<rect width="288" height="176" rx="5.87755" fill="#F5F9FE"/>
<g filter="url(#filter0_dd_77_5193)">
<rect x="91.1021" y="64.5332" width="105.796" height="46.9333" rx="23.4667" fill="white"/>
</g>
<path d="M171.428 92.8889C175.216 92.8889 178.286 89.8245 178.286 86.0445C178.286 82.2644 175.216 79.2 171.428 79.2C167.641 79.2 164.571 82.2644 164.571 86.0445C164.571 89.8245 167.641 92.8889 171.428 92.8889Z" stroke="#3E8BF3" stroke-width="1.95918" stroke-linecap="round" stroke-linejoin="round"/>
<path d="M176.326 90.9333L182.204 96.8" stroke="#3E8BF3" stroke-width="1.95918" stroke-linecap="round" stroke-linejoin="round"/>
<path d="M114.612 96.8C119.481 96.8 123.428 92.8601 123.428 88C123.428 83.1399 119.481 79.2 114.612 79.2C109.743 79.2 105.796 83.1399 105.796 88C105.796 92.8601 109.743 96.8 114.612 96.8Z" stroke="#6FD6BD" stroke-width="1.95918" stroke-miterlimit="10" stroke-linecap="round" stroke-linejoin="round"/>
<path d="M110.694 88H118.531" stroke="#6FD6BD" stroke-width="1.95918" stroke-linecap="round" stroke-linejoin="round"/>
<path d="M114.612 91.9111L114.612 84.0889" stroke="#6FD6BD" stroke-width="1.95918" stroke-linecap="round" stroke-linejoin="round"/>
<path opacity="0.3" d="M144 46.9333V128.7" stroke="#3E8BF3" stroke-width="0.734694"/>
<defs>
<filter id="filter0_dd_77_5193" x="79.3469" y="58.6557" width="129.306" height="70.4436" filterUnits="userSpaceOnUse" color-interpolation-filters="sRGB">
<feFlood flood-opacity="0" result="BackgroundImageFix"/>
<feColorMatrix in="SourceAlpha" type="matrix" values="0 0 0 0 0 0 0 0 0 0 0 0 0 0 0 0 0 0 127 0" result="hardAlpha"/>
<feOffset dy="5.87755"/>
<feGaussianBlur stdDeviation="5.87755"/>
<feColorMatrix type="matrix" values="0 0 0 0 0 0 0 0 0 0 0 0 0 0 0 0 0 0 0.08 0"/>
<feBlend mode="normal" in2="BackgroundImageFix" result="effect1_dropShadow_77_5193"/>
<feColorMatrix in="SourceAlpha" type="matrix" values="0 0 0 0 0 0 0 0 0 0 0 0 0 0 0 0 0 0 127 0" result="hardAlpha"/>
<feOffset/>
<feGaussianBlur stdDeviation="1.46939"/>
<feColorMatrix type="matrix" values="0 0 0 0 0 0 0 0 0 0 0 0 0 0 0 0 0 0 0.04 0"/>
<feBlend mode="normal" in2="effect1_dropShadow_77_5193" result="effect2_dropShadow_77_5193"/>
<feBlend mode="normal" in="SourceGraphic" in2="effect2_dropShadow_77_5193" result="shape"/>
</filter>
</defs>
</svg>
