<svg width="288" height="176" viewBox="0 0 288 176" fill="none" xmlns="http://www.w3.org/2000/svg">
<rect width="288" height="176" rx="5.87755" fill="#F5F9FE"/>
<path d="M62.449 88H225.551" stroke="white" stroke-width="14.6939"/>
<g filter="url(#filter0_dd_77_5152)">
<path d="M171 52.8H117C114.87 52.8 113.143 54.5558 113.143 56.7218V80.899C113.143 109.848 137.343 120.849 142.881 122.987C143.614 123.271 144.386 123.271 145.119 122.987C150.657 120.849 174.857 109.848 174.857 80.899V56.7218C174.857 54.5558 173.13 52.8 171 52.8Z" fill="white"/>
</g>
<path d="M144.444 99.3924L144.987 100.824L144.987 100.824L144.444 99.3924ZM143.556 99.3924L143.013 100.824L143.013 100.824L143.556 99.3924ZM133.285 73.5806H154.714V70.5194H133.285V73.5806ZM154.714 73.5778V82.9963H157.775V73.5778H154.714ZM133.285 82.9963V73.5778H130.224V82.9963H133.285ZM154.714 82.9963C154.714 93.2194 146.027 97.1554 143.901 97.9612L144.987 100.824C147.256 99.9633 157.775 95.3278 157.775 82.9963H154.714ZM130.224 82.9963C130.224 95.3278 140.744 99.9633 143.013 100.824L144.098 97.9612C141.973 97.1554 133.285 93.2194 133.285 82.9963H130.224ZM143.901 97.9611C143.924 97.9526 143.958 97.9445 144 97.9445C144.041 97.9445 144.076 97.9526 144.098 97.9611L143.013 100.824C143.654 101.066 144.346 101.066 144.987 100.824L143.901 97.9611ZM154.714 73.5806C154.716 73.5806 154.717 73.5808 154.716 73.5807C154.716 73.5806 154.715 73.5804 154.715 73.5801C154.714 73.5798 154.714 73.5798 154.715 73.5808C154.716 73.5818 154.716 73.5819 154.715 73.5803C154.715 73.5794 154.714 73.5783 154.714 73.5773C154.714 73.5762 154.714 73.5761 154.714 73.5778H157.775C157.775 71.886 156.402 70.5194 154.714 70.5194V73.5806ZM133.285 70.5194C131.598 70.5194 130.224 71.886 130.224 73.5778H133.285C133.285 73.5761 133.286 73.5762 133.285 73.5773C133.285 73.5783 133.285 73.5794 133.284 73.5803C133.284 73.5819 133.284 73.5818 133.284 73.5808C133.285 73.5798 133.286 73.5798 133.285 73.5801C133.284 73.5804 133.284 73.5806 133.283 73.5807C133.283 73.5808 133.283 73.5806 133.285 73.5806V70.5194Z" fill="#3E8BF3"/>
<rect x="142.531" y="72.6" width="2.93878" height="27.1333" fill="#3E8BF3"/>
<g filter="url(#filter1_dd_77_5152)">
<path d="M61.7093 105.017L61.709 105.017C52.3294 105.017 44.7236 97.4094 44.7245 88.0273L61.7093 105.017ZM61.7093 105.017C71.0938 105.016 78.7005 97.4099 78.7005 88.0278M61.7093 105.017L78.7005 88.0278M78.7005 88.0278C78.7005 78.6452 71.0944 71.0374 61.7113 71.0374C52.3289 71.0374 44.7223 78.6432 44.7245 88.0263L78.7005 88.0278Z" fill="#EAB300" stroke="white" stroke-width="4.59184"/>
<g filter="url(#filter2_dd_77_5152)">
<path d="M61.7093 105.017L61.709 105.017C52.3294 105.017 44.7236 97.4094 44.7245 88.0273L61.7093 105.017ZM61.7093 105.017C71.0938 105.016 78.7005 97.4099 78.7005 88.0278M61.7093 105.017L78.7005 88.0278M78.7005 88.0278C78.7005 78.6452 71.0944 71.0374 61.7113 71.0374C52.3289 71.0374 44.7223 78.6432 44.7245 88.0263L78.7005 88.0278Z" fill="#EAB300" stroke="white" stroke-width="4.59184"/>
<path fill-rule="evenodd" clip-rule="evenodd" d="M67.4935 84.4286C67.3043 82.4607 65.6056 81.8012 63.459 81.6131V78.8823H61.798V81.5402C61.3618 81.5402 60.9151 81.5485 60.4719 81.5579V78.8823H58.8109L58.8097 81.6108L58.7919 81.6111H58.7919C58.4383 81.618 58.0904 81.6249 57.7517 81.6249V81.6166L55.4605 81.6155V83.3906C55.4605 83.3906 56.6878 83.367 56.6666 83.3894C57.3402 83.3894 57.5589 83.7797 57.6224 84.117V87.2276C57.6694 87.2276 57.7294 87.2299 57.7975 87.2393H57.6224L57.6212 91.5971C57.5918 91.8087 57.4672 92.1461 56.997 92.1473C57.0181 92.1661 55.7897 92.1473 55.7897 92.1473L55.4594 94.1316H57.6224C57.8663 94.1316 58.108 94.1342 58.3471 94.1368C58.5021 94.1384 58.6559 94.1401 58.8085 94.141L58.8097 96.9024H60.4696V94.1704C60.9245 94.1798 61.3653 94.1833 61.7968 94.1833L61.7956 96.9024H63.4567V94.1469C66.2498 93.987 68.2071 93.2829 68.4493 90.659C68.6456 88.5465 67.6522 87.6026 66.0664 87.2217C67.0315 86.7327 67.6346 85.8686 67.4935 84.4286ZM65.1683 90.3321C65.1683 92.2271 62.188 92.1842 60.8287 92.1646C60.7081 92.1628 60.6003 92.1613 60.5084 92.1613V88.5018C60.6232 88.502 60.763 88.4989 60.9214 88.4953C62.3187 88.464 65.1683 88.4 65.1683 90.3321ZM60.7862 86.8321C61.9237 86.8501 64.3948 86.8891 64.3948 85.1703C64.3958 83.4113 62.0146 83.4743 60.8504 83.5051C60.7193 83.5086 60.6035 83.5116 60.5084 83.5116V86.8291C60.5877 86.829 60.6813 86.8304 60.7862 86.8321Z" fill="white"/>
<path d="M57.6246 87.1544H57.8715V87.3366H57.6246V87.1544Z" fill="white"/>
<path d="M75.9652 91.5479C74.0027 99.4052 66.0299 104.187 58.1572 102.228C50.2877 100.269 45.4971 92.3101 47.4604 84.4536C49.4221 76.5955 57.3949 71.8134 65.2652 73.7722C73.1374 75.7311 77.9277 83.6905 75.965 91.5481L75.9652 91.5479H75.9652Z" fill="#50AF95"/>
<path fill-rule="evenodd" clip-rule="evenodd" d="M63.5737 89.6629C63.4698 89.6707 62.933 89.7026 61.7355 89.7026C60.7831 89.7026 60.1069 89.6741 59.8697 89.6629C56.189 89.5013 53.4418 88.8618 53.4418 88.0961C53.4418 87.3304 56.189 86.6917 59.8697 86.5275V89.026C60.1104 89.0432 60.7996 89.0839 61.752 89.0839C62.8949 89.0839 63.4672 89.0363 63.5702 89.0268V86.5292C67.243 86.6926 69.9842 87.3321 69.9842 88.0961C69.9842 88.86 67.2439 89.4996 63.5702 89.662L63.5737 89.6629ZM63.5737 86.2707V84.035H68.6994V80.6256H54.744V84.035H59.8688V86.2698C55.7034 86.4608 52.5708 87.2844 52.5708 88.2714C52.5708 89.2583 55.7034 90.0811 59.8688 90.2729V97.4373H63.5728V90.2703C67.7288 90.0793 70.8562 89.2566 70.8562 88.2705C70.8562 87.2844 67.7314 86.4617 63.5728 86.2698L63.5737 86.2707Z" fill="white"/>
</g>
</g>
<g filter="url(#filter3_dd_77_5152)">
<path d="M226.281 105.017H226.28C216.901 105.017 209.295 97.4094 209.296 88.0273L226.281 105.017ZM226.281 105.017C235.665 105.016 243.272 97.4099 243.272 88.0278M226.281 105.017L243.272 88.0278M243.272 88.0278C243.272 78.6452 235.666 71.0374 226.283 71.0374C216.9 71.0374 209.294 78.6432 209.296 88.0263L243.272 88.0278Z" fill="#EAB300" stroke="white" stroke-width="4.59184"/>
<path d="M240.54 91.5479C238.578 99.4052 230.605 104.187 222.732 102.228C214.863 100.269 210.072 92.3101 212.035 84.4536C213.997 76.5955 221.97 71.8134 229.84 73.7722C237.712 75.7311 242.503 83.6905 240.54 91.5481L240.54 91.5479H240.54Z" fill="#419300"/>
<g clip-path="url(#clip0_77_5152)">
<path d="M230.573 88.8074C229.807 88.1012 228.632 87.5077 227.09 87.045C225.98 86.6941 225.21 86.327 224.801 85.9545C224.427 85.6135 224.245 85.1761 224.245 84.616C224.245 83.9828 224.422 83.5047 224.787 83.153C225.15 82.8012 225.726 82.6235 226.496 82.6235C227.212 82.6235 227.753 82.8472 228.15 83.3081C228.559 83.7835 228.758 84.4211 228.758 85.205C228.758 85.4052 228.918 85.5919 229.116 85.5919H231.283C231.48 85.5919 231.641 85.4043 231.641 85.205C231.641 83.8033 231.219 82.6497 230.481 81.7991C229.802 81.018 228.812 80.5093 227.653 80.3091V78.35C227.653 78.1498 227.589 77.9252 227.392 77.9252H225.645C225.447 77.9252 225.336 78.1498 225.336 78.35V80.2973C224.178 80.4841 223.224 80.9341 222.531 81.6368C221.765 82.4134 221.364 83.4263 221.364 84.6466C221.364 85.867 221.78 86.9358 222.614 87.6998C223.41 88.4304 224.588 89.0185 226.122 89.4478C227.147 89.7707 227.881 90.1351 228.307 90.5293C228.701 90.8946 228.893 91.3212 228.893 91.8335C228.893 92.4649 228.675 92.942 228.229 93.2929C227.761 93.66 227.085 93.8467 226.221 93.8467C225.469 93.8467 224.854 93.6519 224.339 93.2505C223.859 92.878 223.616 92.2547 223.616 91.3275C223.616 91.1273 223.456 91.0019 223.258 91.0019H221.157C221.014 91.0019 220.886 91.0506 220.829 91.1823L220.807 91.2148C220.788 91.2581 220.778 91.295 220.777 91.3428C220.745 92.8663 221.182 94.0424 222.07 94.8461C222.863 95.565 223.911 96.0096 225.069 96.1783V97.8118C225.069 98.012 225.226 98.1265 225.423 98.1265H227.158C227.356 98.1265 227.563 98.012 227.563 97.8118V96.1684C228.81 95.9979 229.799 95.565 230.55 94.8813C231.383 94.12 231.795 93.0873 231.795 91.8119C231.795 90.5365 231.375 89.5461 230.572 88.8047L230.573 88.8074Z" fill="white"/>
</g>
</g>
<path opacity="0.5" fill-rule="evenodd" clip-rule="evenodd" d="M102.249 84.6738L104.586 87.0073C104.73 87.1505 104.73 87.3826 104.586 87.5258L102.249 89.8593C102.105 90.0025 101.873 90.0025 101.729 89.8593L101.755 87.6333L88.1633 87.6332V86.8999H101.729C101.729 86.4544 101.729 84.6738 101.729 84.6738C101.873 84.5306 102.105 84.5306 102.249 84.6738Z" fill="#3E8BF3"/>
<path opacity="0.5" fill-rule="evenodd" clip-rule="evenodd" d="M197.024 84.6738L199.362 87.0073C199.505 87.1505 199.505 87.3826 199.362 87.5258L197.024 89.8593C196.88 90.0025 196.648 90.0025 196.504 89.8593L196.531 87.6333L182.939 87.6332V86.8999H196.504C196.504 86.4544 196.504 84.6738 196.504 84.6738C196.648 84.5306 196.88 84.5306 197.024 84.6738Z" fill="#3E8BF3"/>
<defs>
<filter id="filter0_dd_77_5152" x="101.388" y="46.9224" width="85.2244" height="93.9102" filterUnits="userSpaceOnUse" color-interpolation-filters="sRGB">
<feFlood flood-opacity="0" result="BackgroundImageFix"/>
<feColorMatrix in="SourceAlpha" type="matrix" values="0 0 0 0 0 0 0 0 0 0 0 0 0 0 0 0 0 0 127 0" result="hardAlpha"/>
<feOffset dy="5.87755"/>
<feGaussianBlur stdDeviation="5.87755"/>
<feColorMatrix type="matrix" values="0 0 0 0 0 0 0 0 0 0 0 0 0 0 0 0 0 0 0.08 0"/>
<feBlend mode="normal" in2="BackgroundImageFix" result="effect1_dropShadow_77_5152"/>
<feColorMatrix in="SourceAlpha" type="matrix" values="0 0 0 0 0 0 0 0 0 0 0 0 0 0 0 0 0 0 127 0" result="hardAlpha"/>
<feOffset/>
<feGaussianBlur stdDeviation="1.46939"/>
<feColorMatrix type="matrix" values="0 0 0 0 0 0 0 0 0 0 0 0 0 0 0 0 0 0 0.04 0"/>
<feBlend mode="normal" in2="effect1_dropShadow_77_5152" result="effect2_dropShadow_77_5152"/>
<feBlend mode="normal" in="SourceGraphic" in2="effect2_dropShadow_77_5152" result="shape"/>
</filter>
<filter id="filter1_dd_77_5152" x="30.6735" y="62.864" width="62.0781" height="62.0816" filterUnits="userSpaceOnUse" color-interpolation-filters="sRGB">
<feFlood flood-opacity="0" result="BackgroundImageFix"/>
<feColorMatrix in="SourceAlpha" type="matrix" values="0 0 0 0 0 0 0 0 0 0 0 0 0 0 0 0 0 0 127 0" result="hardAlpha"/>
<feOffset dy="5.87755"/>
<feGaussianBlur stdDeviation="5.87755"/>
<feColorMatrix type="matrix" values="0 0 0 0 0 0 0 0 0 0 0 0 0 0 0 0 0 0 0.08 0"/>
<feBlend mode="normal" in2="BackgroundImageFix" result="effect1_dropShadow_77_5152"/>
<feColorMatrix in="SourceAlpha" type="matrix" values="0 0 0 0 0 0 0 0 0 0 0 0 0 0 0 0 0 0 127 0" result="hardAlpha"/>
<feOffset/>
<feGaussianBlur stdDeviation="1.46939"/>
<feColorMatrix type="matrix" values="0 0 0 0 0 0 0 0 0 0 0 0 0 0 0 0 0 0 0.04 0"/>
<feBlend mode="normal" in2="effect1_dropShadow_77_5152" result="effect2_dropShadow_77_5152"/>
<feBlend mode="normal" in="SourceGraphic" in2="effect2_dropShadow_77_5152" result="shape"/>
</filter>
<filter id="filter2_dd_77_5152" x="30.6735" y="62.864" width="62.0781" height="62.0816" filterUnits="userSpaceOnUse" color-interpolation-filters="sRGB">
<feFlood flood-opacity="0" result="BackgroundImageFix"/>
<feColorMatrix in="SourceAlpha" type="matrix" values="0 0 0 0 0 0 0 0 0 0 0 0 0 0 0 0 0 0 127 0" result="hardAlpha"/>
<feOffset dy="5.87755"/>
<feGaussianBlur stdDeviation="5.87755"/>
<feColorMatrix type="matrix" values="0 0 0 0 0 0 0 0 0 0 0 0 0 0 0 0 0 0 0.08 0"/>
<feBlend mode="normal" in2="BackgroundImageFix" result="effect1_dropShadow_77_5152"/>
<feColorMatrix in="SourceAlpha" type="matrix" values="0 0 0 0 0 0 0 0 0 0 0 0 0 0 0 0 0 0 127 0" result="hardAlpha"/>
<feOffset/>
<feGaussianBlur stdDeviation="1.46939"/>
<feColorMatrix type="matrix" values="0 0 0 0 0 0 0 0 0 0 0 0 0 0 0 0 0 0 0.04 0"/>
<feBlend mode="normal" in2="effect1_dropShadow_77_5152" result="effect2_dropShadow_77_5152"/>
<feBlend mode="normal" in="SourceGraphic" in2="effect2_dropShadow_77_5152" result="shape"/>
</filter>
<filter id="filter3_dd_77_5152" x="195.245" y="62.864" width="62.0781" height="62.0816" filterUnits="userSpaceOnUse" color-interpolation-filters="sRGB">
<feFlood flood-opacity="0" result="BackgroundImageFix"/>
<feColorMatrix in="SourceAlpha" type="matrix" values="0 0 0 0 0 0 0 0 0 0 0 0 0 0 0 0 0 0 127 0" result="hardAlpha"/>
<feOffset dy="5.87755"/>
<feGaussianBlur stdDeviation="5.87755"/>
<feColorMatrix type="matrix" values="0 0 0 0 0 0 0 0 0 0 0 0 0 0 0 0 0 0 0.08 0"/>
<feBlend mode="normal" in2="BackgroundImageFix" result="effect1_dropShadow_77_5152"/>
<feColorMatrix in="SourceAlpha" type="matrix" values="0 0 0 0 0 0 0 0 0 0 0 0 0 0 0 0 0 0 127 0" result="hardAlpha"/>
<feOffset/>
<feGaussianBlur stdDeviation="1.46939"/>
<feColorMatrix type="matrix" values="0 0 0 0 0 0 0 0 0 0 0 0 0 0 0 0 0 0 0.04 0"/>
<feBlend mode="normal" in2="effect1_dropShadow_77_5152" result="effect2_dropShadow_77_5152"/>
<feBlend mode="normal" in="SourceGraphic" in2="effect2_dropShadow_77_5152" result="shape"/>
</filter>
<clipPath id="clip0_77_5152">
<rect width="11.0204" height="20.2041" fill="white" transform="translate(220.776 77.9252)"/>
</clipPath>
</defs>
</svg>
