<svg width="21" height="20" viewBox="0 0 21 20" fill="none" xmlns="http://www.w3.org/2000/svg">
<g clip-path="url(#clip0_76_3804)">
<path d="M10.4962 20C16.0191 20 20.4962 15.5228 20.4962 10C20.4962 4.47715 16.0191 0 10.4962 0C4.97337 0 0.496216 4.47715 0.496216 10C0.496216 15.5228 4.97337 20 10.4962 20Z" fill="#338AF3"/>
<path d="M16.1484 10.1087H4.84406C4.84406 10.8891 5.52378 11.5218 6.30413 11.5218H6.2571C6.2571 12.3022 6.88972 12.9348 7.67015 12.9348C7.67015 13.7152 8.30277 14.3479 9.0832 14.3479H11.9093C12.6897 14.3479 13.3223 13.7152 13.3223 12.9348C14.1028 12.9348 14.7354 12.3022 14.7354 11.5218H14.6884C15.4686 11.5218 16.1484 10.8891 16.1484 10.1087Z" fill="#FFDA44"/>
<path d="M14.4093 8.26086C14.4093 10.422 12.6573 12.1739 10.4962 12.1739C8.3351 12.1739 6.58319 10.422 6.58319 8.26086" fill="#338AF3"/>
<path d="M13.4851 8.26086L12.2638 8.83535L12.9141 10.0182L11.5879 9.76445L11.4199 11.1041L10.4962 10.1188L9.57244 11.1041L9.40443 9.76445L8.07826 10.0181L8.72857 8.83531L7.50732 8.26086L8.72861 7.6864L8.07826 6.50363L9.40439 6.7573L9.57248 5.41761L10.4962 6.40297L11.4199 5.41761L11.5879 6.7573L12.9142 6.50363L12.2638 7.68644L13.4851 8.26086Z" fill="#FFDA44"/>
</g>
<defs>
<clipPath id="clip0_76_3804">
<rect width="20" height="20" fill="white" transform="translate(0.496216)"/>
</clipPath>
</defs>
</svg>
