<svg width="97" height="24" viewBox="0 0 97 24" fill="none" xmlns="http://www.w3.org/2000/svg">
<path fill-rule="evenodd" clip-rule="evenodd" d="M35.6864 20.2832H29.621V3.71579H35.6864C41.0382 3.71579 44.725 7.38429 44.725 11.9995C44.725 16.6147 41.0382 20.2832 35.6864 20.2832ZM33.1888 7.02927V16.9697H35.6864C39.0164 16.9697 41.0382 14.958 41.0382 11.9995C41.0382 9.04103 39.0164 7.02927 35.6864 7.02927H33.1888Z" fill="black"/>
<path d="M59.5994 20.2832H47.1119V10.3377L50.6798 10.3377V10.3428H57.8155V13.4196H50.6798V16.9697H59.5994V20.2832Z" fill="black"/>
<path d="M47.1119 7.02737V3.71579H59.5994V7.02927H55.9393V7.02737L47.1119 7.02737Z" fill="black"/>
<path fill-rule="evenodd" clip-rule="evenodd" d="M66.3117 20.2832H62.7438V3.71579H70.4742C74.5178 3.71579 77.1342 6.31924 77.1342 9.51438C77.1342 12.7095 74.5178 15.313 70.4742 15.313H66.3117V20.2832ZM66.3117 7.02927V11.9995H70.3553C72.3771 11.9995 73.4474 10.9344 73.4474 9.51438C73.4474 8.09432 72.3771 7.02927 70.3553 7.02927H66.3117Z" fill="black"/>
<path fill-rule="evenodd" clip-rule="evenodd" d="M87.8425 20.7566C82.6096 20.7566 78.685 16.8514 78.685 11.9995C78.685 7.14761 82.6096 3.24243 87.8425 3.24243C93.0754 3.24243 97 7.14761 97 11.9995C97 16.8514 93.0754 20.7566 87.8425 20.7566ZM87.8425 6.55591C84.7503 6.55591 82.4907 8.80435 82.4907 11.9995C82.4907 15.1946 84.7503 17.4431 87.8425 17.4431C90.9347 17.4431 93.1943 15.1946 93.1943 11.9995C93.1943 8.80435 90.9347 6.55591 87.8425 6.55591Z" fill="black"/>
<path d="M12.9246 15.6447C13.4859 15.9707 13.4859 16.7858 12.9246 17.1118L1.26289 23.8854C0.701592 24.2114 -3.40387e-05 23.8039 -3.40101e-05 23.1518L-3.34158e-05 9.60465C-3.33872e-05 8.9526 0.701592 8.54507 1.26289 8.87109L12.9246 15.6447Z" fill="#3E8BF3"/>
<path d="M7.90889 6.88809C7.34759 7.21411 7.34759 8.02917 7.90889 8.3552L19.5706 15.1288C20.1319 15.4548 20.8335 15.0473 20.8335 14.3952L20.8335 0.848057C20.8335 0.196007 20.1319 -0.211525 19.5706 0.114501L7.90889 6.88809Z" fill="#6FD6BD"/>
</svg>
