<svg width="21" height="20" viewBox="0 0 21 20" fill="none" xmlns="http://www.w3.org/2000/svg">
<g clip-path="url(#clip0_76_3800)">
<path d="M10.4962 20C16.0191 20 20.4962 15.5228 20.4962 10C20.4962 4.47715 16.0191 0 10.4962 0C4.97337 0 0.496216 4.47715 0.496216 10C0.496216 15.5228 4.97337 20 10.4962 20Z" fill="#D80027"/>
<path d="M10.0866 8.17135L10.9071 9.30202L12.2359 8.87116L11.4141 10.0008L12.2345 11.1315L10.9062 10.699L10.0844 11.8287L10.0853 10.4317L8.7569 9.99924L10.0857 9.56838L10.0866 8.17135Z" fill="#F0F0F0"/>
<path d="M7.84742 12.8262C6.28664 12.8262 5.02133 11.5609 5.02133 10.0001C5.02133 8.43931 6.28664 7.174 7.84742 7.174C8.33406 7.174 8.79195 7.29708 9.19172 7.51369C8.56457 6.90033 7.70687 6.52181 6.76047 6.52181C4.83945 6.52181 3.28223 8.07908 3.28223 10.0001C3.28223 11.921 4.83949 13.4783 6.76047 13.4783C7.70695 13.4783 8.56461 13.0997 9.19172 12.4864C8.79195 12.7031 8.33406 12.8262 7.84742 12.8262Z" fill="#F0F0F0"/>
</g>
<defs>
<clipPath id="clip0_76_3800">
<rect width="20" height="20" fill="white" transform="translate(0.496216)"/>
</clipPath>
</defs>
</svg>
